<?xml version="1.0" encoding="UTF-8" standalone="no"?><!-- Generator: Gravit.io --><svg xmlns="http://www.w3.org/2000/svg" xmlns:xlink="http://www.w3.org/1999/xlink" style="isolation:isolate" viewBox="0 0 800 800" width="800pt" height="800pt"><defs><clipPath id="_clipPath_9w1sE0L3jwaamvEWTxzoiFEaKZpGwwT9"><rect width="800" height="800"/></clipPath></defs><g clip-path="url(#_clipPath_9w1sE0L3jwaamvEWTxzoiFEaKZpGwwT9)"><mask id="_mask_IgvoawHNsjyTg67VOnl6cKVTIO4fW8P3"><path d=" M 413 204 Q 252.603 210.898 188.703 266.224 C 175.935 277.279 164.352 286.905 153.881 300.616 C 137.666 321.85 126.268 342.49 122 369 C 121.233 373.765 120.384 377.712 119.897 382.485 C 118.331 397.868 116.943 407.235 118.883 420.534 C 124.305 457.704 136.364 463.409 179 504 Q 159.75 539.25 108 585 C 56.25 630.75 208.25 578.5 235 548 Q 374.5 622.25 566 556 C 745.708 493.829 741.054 309.793 610.395 245.683 C 604.103 242.595 598.296 239.863 592 238 Q 489.25 200.25 413 204 Z " fill="white" stroke="none"/></mask><path d=" M 413 204 Q 252.603 210.898 188.703 266.224 C 175.935 277.279 164.352 286.905 153.881 300.616 C 137.666 321.85 126.268 342.49 122 369 C 121.233 373.765 120.384 377.712 119.897 382.485 C 118.331 397.868 116.943 407.235 118.883 420.534 C 124.305 457.704 136.364 463.409 179 504 Q 159.75 539.25 108 585 C 56.25 630.75 208.25 578.5 235 548 Q 374.5 622.25 566 556 C 745.708 493.829 741.054 309.793 610.395 245.683 C 604.103 242.595 598.296 239.863 592 238 Q 489.25 200.25 413 204 Z " fill="rgb(255,255,255)"/><path d=" M 413 204 Q 252.603 210.898 188.703 266.224 C 175.935 277.279 164.352 286.905 153.881 300.616 C 137.666 321.85 126.268 342.49 122 369 C 121.233 373.765 120.384 377.712 119.897 382.485 C 118.331 397.868 116.943 407.235 118.883 420.534 C 124.305 457.704 136.364 463.409 179 504 Q 159.75 539.25 108 585 C 56.25 630.75 208.25 578.5 235 548 Q 374.5 622.25 566 556 C 745.708 493.829 741.054 309.793 610.395 245.683 C 604.103 242.595 598.296 239.863 592 238 Q 489.25 200.25 413 204 Z " fill="rgb(255,255,255)" mask="url(#_mask_IgvoawHNsjyTg67VOnl6cKVTIO4fW8P3)" vector-effect="non-scaling-stroke" stroke-width="10" stroke="rgb(0,0,0)" stroke-linejoin="miter" stroke-linecap="square" stroke-miterlimit="3"/><path d=" M 231 543 Q 139.5 596.5 114 594 Q 187.5 552 202 523 Q 229 523.5 231 543 Z " fill="rgb(0,0,0)"/><line x1="877" y1="676" x2="908" y2="614"/><g><mask id="_mask_SZzAWUWzEcl8j0h1LFkUxzKdF3adWw8j"><ellipse vector-effect="non-scaling-stroke" cx="413" cy="391.5" rx="310" ry="201.50000000000003" fill="white" stroke="none"/></mask><ellipse vector-effect="non-scaling-stroke" cx="413" cy="391.5" rx="310" ry="201.50000000000003" fill="rgb(0,0,0)"/><ellipse vector-effect="non-scaling-stroke" cx="413" cy="391.5" rx="310" ry="201.50000000000003" fill="rgb(0,0,0)" mask="url(#_mask_SZzAWUWzEcl8j0h1LFkUxzKdF3adWw8j)" stroke-width="14" stroke="rgb(0,0,0)" stroke-linejoin="miter" stroke-linecap="square" stroke-miterlimit="3"/><ellipse vector-effect="non-scaling-stroke" cx="408.0319948422213" cy="393.83057228915663" rx="297.03199484222137" ry="190.16942771084342" fill="rgb(255,255,255)"/><path d=" M 500 213 Q 678 251 705 377 C 732 503 514 601 403 583 Q 727 453 500 213 Z " fill="none"/><path d=" M 223 392 C 222.897 309.175 281.818 268.182 339 213 Q 153.5 229.125 115 366 C 76.5 502.875 281.875 579.875 362 583 Q 223.091 465.152 223 392 Z " fill="none"/><path d=" M 159 315 Q 87.455 460.606 271 550 Q 248.848 515.879 232 464 Q 151.333 466.364 159 315 Z " fill="rgb(0,0,0)"/><path d=" M 559.781 336.542 C 540.28 301.812 541.64 263.962 562.814 252.073 C 583.989 240.184 617.012 258.728 636.513 293.458 C 656.013 328.188 654.654 366.038 633.48 377.927 C 612.305 389.816 579.282 371.272 559.781 336.542 Z " fill="rgb(0,0,0)"/><path d=" M 559.647 442.853 C 550.276 415.885 556.016 389.351 572.458 383.637 C 588.901 377.923 609.858 395.179 619.23 422.147 C 628.601 449.115 622.861 475.649 606.419 481.363 C 589.977 487.077 569.019 469.821 559.647 442.853 Z " fill="rgb(0,0,0)"/></g><g><mask id="_mask_8a7AamrutBMpzBqb5ANhltTw2vhhSM9M"><ellipse vector-effect="non-scaling-stroke" cx="250.5769230769233" cy="249.42499999999984" rx="128.57692307692332" ry="83.57500000000014" fill="white" stroke="none"/></mask><ellipse vector-effect="non-scaling-stroke" cx="250.5769230769233" cy="249.42499999999984" rx="128.57692307692332" ry="83.57500000000014" fill="rgb(89,186,234)"/><ellipse vector-effect="non-scaling-stroke" cx="250.5769230769233" cy="249.42499999999984" rx="128.57692307692332" ry="83.57500000000014" fill="rgb(89,186,234)" mask="url(#_mask_8a7AamrutBMpzBqb5ANhltTw2vhhSM9M)" stroke-width="14" stroke="rgb(0,0,0)" stroke-linejoin="miter" stroke-linecap="square" stroke-miterlimit="3"/><ellipse vector-effect="non-scaling-stroke" cx="248.5163720542863" cy="250.39163810951013" rx="123.19825791036573" ry="78.87548347857947" fill="rgb(255,255,255)"/><path d=" M 286.661 175.39 Q 360.489 191.151 371.688 243.411 C 382.887 295.671 292.468 336.318 246.429 328.852 Q 380.813 274.933 286.661 175.39 Z " fill="none"/><path d=" M 171.772 249.632 C 171.729 215.279 196.167 198.277 219.884 175.39 Q 142.946 182.078 126.977 238.849 C 111.009 295.619 196.191 327.556 229.424 328.852 Q 171.809 279.973 171.772 249.632 Z " fill="none"/><path d=" M 145.227 217.696 Q 115.552 278.088 191.68 315.165 Q 182.493 301.013 175.505 279.495 Q 142.047 280.476 145.227 217.696 Z " fill="rgb(255,255,255)" fill-opacity="0.75"/><path d=" M 311.456 226.63 C 303.368 212.225 303.932 196.527 312.715 191.596 C 321.497 186.664 335.194 194.356 343.282 208.761 C 351.37 223.166 350.806 238.864 342.024 243.795 C 333.241 248.727 319.545 241.035 311.456 226.63 Z " fill="rgb(0,0,0)"/><path d=" M 311.401 270.724 C 307.514 259.539 309.895 248.534 316.715 246.164 C 323.534 243.794 332.227 250.951 336.114 262.136 C 340.001 273.322 337.62 284.327 330.8 286.697 C 323.98 289.067 315.288 281.91 311.401 270.724 Z " fill="rgb(0,0,0)"/></g><g><mask id="_mask_thF5DP0WxSr7jqu1oLYksFrl9mzauKFc"><ellipse vector-effect="non-scaling-stroke" cx="165.07692307692304" cy="320.99999999999994" rx="93.07692307692304" ry="69.99999999999993" fill="white" stroke="none"/></mask><ellipse vector-effect="non-scaling-stroke" cx="165.07692307692304" cy="320.99999999999994" rx="93.07692307692304" ry="69.99999999999993" fill="rgb(0,0,0)"/><ellipse vector-effect="non-scaling-stroke" cx="165.07692307692304" cy="320.99999999999994" rx="93.07692307692304" ry="69.99999999999993" fill="rgb(0,0,0)" mask="url(#_mask_thF5DP0WxSr7jqu1oLYksFrl9mzauKFc)" stroke-width="14" stroke="rgb(0,0,0)" stroke-linejoin="miter" stroke-linecap="square" stroke-miterlimit="3"/><ellipse vector-effect="non-scaling-stroke" cx="163.58528877396714" cy="321.8096280905262" rx="89.18330366230464" ry="66.0638210409877" fill="rgb(255,255,255)"/><path d=" M 191.199 258.99 Q 244.643 272.191 252.749 315.963 C 260.856 359.734 195.402 393.779 162.074 387.526 Q 259.355 342.365 191.199 258.99 Z " fill="none"/><path d=" M 108.03 321.174 C 107.999 292.401 125.69 278.16 142.859 258.99 Q 87.163 264.592 75.603 312.141 C 64.043 359.691 125.707 386.44 149.764 387.526 Q 108.057 346.586 108.03 321.174 Z " fill="none"/><path d=" M 88.814 294.424 Q 67.333 345.007 122.442 376.062 Q 115.791 364.209 110.732 346.186 Q 86.512 347.007 88.814 294.424 Z " fill="rgb(0,0,0)"/><path d=" M 209.148 301.908 C 203.293 289.843 203.701 276.694 210.058 272.564 C 216.416 268.434 226.331 274.876 232.186 286.941 C 238.041 299.006 237.633 312.155 231.275 316.285 C 224.918 320.415 215.003 313.973 209.148 301.908 Z " fill="rgb(0,0,0)"/><path d=" M 209.108 338.84 C 206.294 329.471 208.017 320.253 212.954 318.268 C 217.891 316.284 224.183 322.278 226.997 331.647 C 229.811 341.015 228.087 350.233 223.151 352.218 C 218.214 354.203 211.921 348.208 209.108 338.84 Z " fill="rgb(0,0,0)"/></g><g clip-path="url(#_clipPath_M0UiYqnvhb0Ib1R1M7qI9KlxmlUwoaPH)"><text transform="matrix(1,0,0,1,338.29,364.15)" style="font-family:'Titan One';font-weight:400;font-size:60px;font-style:normal;fill:#000000;stroke:#000000;stroke-width:1;">Load  </text><text transform="matrix(1,0,0,1,391.9,432.85)" style="font-family:'Titan One';font-weight:400;font-size:60px;font-style:normal;fill:#000000;stroke:#000000;stroke-width:1;">N' </text><text transform="matrix(1,0,0,1,344.8,501.55)" style="font-family:'Titan One';font-weight:400;font-size:60px;font-style:normal;fill:#000000;stroke:#000000;stroke-width:1;">Told</text></g><defs><clipPath id="_clipPath_M0UiYqnvhb0Ib1R1M7qI9KlxmlUwoaPH"><rect x="0" y="0" width="418" height="189" transform="matrix(1,0,0,1,204,308.5)"/></clipPath></defs></g></svg>